#N canvas 0 0 1457 803 16;
#X obj 90 46 tgl 19 0 empty empty empty 0 -10 0 12 #fcfcfc #000000
#000000 1 1;
#X msg 90 70 \; pd dsp \$1;
#X obj 650 80 bng 19 250 50 0 empty empty empty 0 -10 0 12 #fcfcfc
#000000 #000000;
#N canvas 533 276 451 251 (subpatch) 0;
#X array adsr 48 float 19 black #000000;
#A 0 0 0 0 0 0 0 0 0 0 0 0 0 0 0 0 0 0 0 0 0 0 0 0 0 0 0 0 0 0 0 0
0 0 0 0 0 0 0 0 0 0 0 0 0 0 0 0 0;
#X coords 0 1 48 -1 250 215 1;
#X restore 1270 150 graph;
#X floatatom 560 200 5 0 0 0 - - -, f 5;
#X obj 620 660 tabwrite~ adsr;
#X floatatom 650 200 5 0 0 0 - - -, f 5;
#X obj 580 500 adsr~;
#X floatatom 720 200 5 0 0 0 - - -, f 5;
#X floatatom 790 200 5 0 0 0 - - -, f 5;
#X obj 403 438 osc~ 440;
#X obj 415 514 *~;
#X obj 430 600 clip~ -1 1;
#X obj 438 654 dac~;
#X listbox 580 410 20 0 0 0 - - -, f 20;
#X floatatom 580 250 5 0 0 0 - - -, f 5;
#X floatatom 740 240 5 0 0 0 - - -, f 5;
#X obj 580 340 pack f f f f f f;
#X obj 900 400 samm~ 40 1;
#X obj 670 10 bang~;
#X obj 1040 560 tgl 15 0 empty empty empty 17 7 0 10 #fcfcfc #000000
#000000 1 1;
#X obj 1040 610 metro 10;
#X connect 0 0 1 0;
#X connect 2 0 4 0;
#X connect 2 0 6 0;
#X connect 2 0 8 0;
#X connect 2 0 9 0;
#X connect 2 0 15 0;
#X connect 2 0 16 0;
#X connect 4 0 17 0;
#X connect 6 0 17 1;
#X connect 7 0 11 1;
#X connect 8 0 17 2;
#X connect 9 0 17 3;
#X connect 10 0 11 0;
#X connect 11 0 12 0;
#X connect 12 0 13 0;
#X connect 12 0 13 1;
#X connect 12 0 5 0;
#X connect 14 0 7 0;
#X connect 15 0 17 4;
#X connect 16 0 17 5;
#X connect 17 0 14 0;
#X connect 18 0 7 0;
#X connect 19 0 2 0;
#X connect 20 0 21 0;
#X connect 21 0 5 0;
