#N canvas 26 76 1458 803 16;
#X obj 90 46 tgl 19 0 empty empty empty 0 -10 0 12 #000000 #000000 #ffffff 0 1;
#X msg 90 70 \; pd dsp \$1;
#X obj 561 713 osc~ 440;
#X obj 513 782 *~;
#X obj 513 822 clip~ -1 1;
#X obj 503 872 dac~;
#X floatatom 666 250 0 0 48000 0 - - - 0;
#X floatatom 710 176 0 0 0 0 - - - 0;
#X floatatom 570 216 0 0 0 0 - - - 0;
#X msg 570 277 0 0 \, 1 \$1;
#X obj 615 -14 bng 49 250 50 0 empty empty empty 17 7 0 10 #000000 #0fffff #000000;
#X obj 570 340 line~;
#X obj 581 474 hv.pow~;
#X floatatom 370 340 0 0 0 0 - - - 0;
#X obj 629 426 /;
#X obj 553 390 -~;
#X floatatom 647 186 0 0.01 1 0 - - - 0;
#X obj 376 85 loadbang, f 6;
#X msg 348 176 1000;
#X msg 467 108 12000;
#X msg 289 250 1;
#N canvas 733 172 450 300 (subpatch) 1;
#X obj 561 640 +~;
#X obj 594 601 *~;
#X obj 645 571 -;
#X obj 594 251 inlet~;
#X obj 744 229 inlet~;
#X obj 481 251 inlet;
#X obj 798 320 inlet;
#X obj 561 713 outlet~;
#X obj 986 493 b;
#X connect 0 0 7 0;
#X connect 1 0 0 1;
#X connect 2 0 1 1;
#X connect 3 0 0 0;
#X connect 4 0 1 0;
#X connect 5 0 2 0;
#X connect 6 0 2 1;
#X restore 666 548 pd;
#X connect 0 0 1 0;
#X connect 2 0 3 0;
#X connect 3 0 4 0;
#X connect 4 0 5 1;
#X connect 4 0 5 0;
#X connect 6 0 21 2;
#X connect 6 0 21 0;
#X connect 7 0 21 1;
#X connect 8 0 9 0;
#X connect 9 0 11 0;
#X connect 10 0 7 0;
#X connect 10 0 8 0;
#X connect 10 0 13 0;
#X connect 10 0 6 0;
#X connect 10 0 16 0;
#X connect 11 0 15 1;
#X connect 12 0 3 1;
#X connect 13 0 14 0;
#X connect 13 0 15 0;
#X connect 14 0 12 1;
#X connect 15 0 12 0;
#X connect 16 0 14 1;
#X connect 17 0 20 0;
#X connect 17 0 19 0;
#X connect 17 0 18 0;
#X connect 18 0 8 0;
#X connect 19 0 7 0;
#X connect 20 0 13 0;
#X connect 21 0 2 0;
