#N canvas 26 76 1458 803 16;
#X obj 90 46 tgl 19 0 empty empty empty 0 -10 0 12 #fcfcfc #000000
#000000 1 1;
#X msg 90 70 \; pd dsp \$1;
#X obj 570 520 osc~ 440;
#X obj 430 560 *~;
#X obj 430 600 clip~ -1 1;
#X obj 420 650 dac~;
#X obj 700 140 vsl 15 128 0.01 1 1 0 empty empty empty 0 -9 0 10 #fcfcfc
#000000 #000000 0 1;
#X obj 570 340 vline~;
#X obj 570 390 expr~ pow(1-$v1 \, 1/$f2);
#X obj 570 440 expr~ $f2 + ($f3-$f2)*$v1;
#X floatatom 740 190 5 0 48000 0 - - -, f 5;
#X floatatom 740 150 5 0 0 0 - - -, f 5;
#X floatatom 570 240 5 0 0 0 - - -, f 5;
#X msg 570 290 0 0 \, 1 \$1;
#X obj 570 200 bng 15 250 50 0 empty empty empty 17 7 0 10 #fcfcfc
#000000 #000000;
#X connect 0 0 1 0;
#X connect 2 0 3 0;
#X connect 3 0 4 0;
#X connect 4 0 5 0;
#X connect 4 0 5 1;
#X connect 6 0 8 1;
#X connect 7 0 8 0;
#X connect 8 0 9 0;
#X connect 8 0 3 1;
#X connect 9 0 2 0;
#X connect 10 0 9 1;
#X connect 11 0 9 2;
#X connect 12 0 13 0;
#X connect 13 0 7 0;
#X connect 14 0 12 0;
