#N canvas 973 395 696 300 12;
#X obj 45 267 dac~;
#X obj 52 216 clip~ -1 1;
#X floatatom 64 57 5 0 0 0 - - - 0;
#X obj 64 109 osc~;
#X obj 169 13 bng 19 250 50 0 empty empty empty 0 -10 0 12 #fcfcfc #000000 #000000;
#X obj 107 152 *~;
#X obj 500 52 tgl 19 0 empty empty empty 0 -10 0 12 #fcfcfc #000000 #000000 0 1;
#X msg 500 76 \; pd dsp \$1;
#X obj 180 144 line~;
#X msg 176 75 1 1000;
#X floatatom 211 106 5 0 0 0 - - - 0;
#X connect 1 0 0 0;
#X connect 1 0 0 1;
#X connect 2 0 3 0;
#X connect 3 0 5 0;
#X connect 4 0 9 0;
#X connect 5 0 1 0;
#X connect 6 0 7 0;
#X connect 8 0 5 1;
#X connect 9 0 8 0;
#X connect 10 0 8 1;
