#N canvas 827 239 734 565 12;
#X obj 461 450 dac~;
#X obj 461 332 osc~ 440;
#X obj 461 370 clip~ -1 1;
#X obj 461 410 *~ 0.5;
#X obj 258 61 env~;
#X obj 946 -136 bng 25 250 50 0 empty empty empty 17 7 0 10 #000000 #ffffff #ffffff;
#X floatatom 757 -71 0 0 0 0 a - - 0;
#X floatatom 833 -71 0 0 0 0 bx - - 0;
#X floatatom 894 -71 0 0 0 0 by - - 0;
#N canvas 0 50 450 300 timer~ 0;
#X obj 490 261 inlet;
#X obj 508 512 rpole~ 1;
#X msg 420 376 clear;
#X obj 548 376 samplerate~;
#X obj 508 423 /;
#X obj 508 460 sig~;
#X obj 485 307 b;
#X obj 508 573 outlet~;
#X obj 490 379 1;
#X connect 0 0 6 0;
#X connect 1 0 7 0;
#X connect 2 0 1 0;
#X connect 3 0 4 1;
#X connect 4 0 5 0;
#X connect 5 0 1 0;
#X connect 6 0 2 0;
#X connect 6 0 3 0;
#X connect 6 0 8 0;
#X connect 8 0 4 0;
#X coords 0 0 1 1 200 140 0;
#X restore 946 -71 pd timer~;
#N canvas 0 50 450 300 expramp~ 0;
#X obj 343 306 inlet;
#X obj 415 306 inlet;
#X obj 487 306 inlet;
#X obj 560 306 inlet~;
#X obj 369 480 *~;
#X obj 405 443 pow~;
#X obj 389 396 /;
#X obj 481 396 /~;
#X obj 369 526 outlet~;
#X connect 0 0 4 0;
#X connect 0 0 6 1;
#X connect 1 0 7 1;
#X connect 2 0 6 0;
#X connect 3 0 7 0;
#X connect 4 0 8 0;
#X connect 5 0 4 1;
#X connect 6 0 5 0;
#X connect 7 0 5 1;
#X coords 0 0 1 1 322 288 0;
#X restore 822 27 pd expramp~;
#X obj 654 269 snapshot~;
#X obj 744 227 bang~;
#X floatatom 759 342 0 0 0 0 - - - 0;
#X connect 1 0 2 0;
#X connect 2 0 3 0;
#X connect 3 0 0 0;
#X connect 3 0 0 1;
#X connect 5 0 9 0;
#X connect 5 0 6 0;
#X connect 5 0 8 0;
#X connect 5 0 7 0;
#X connect 6 0 10 0;
#X connect 7 0 10 1;
#X connect 8 0 10 2;
#X connect 9 0 10 3;
#X connect 10 0 1 0;
#X connect 10 0 11 0;
#X connect 11 0 13 0;
#X connect 12 0 11 0;
