#N canvas 827 239 734 565 12;
#X obj 298 120 adc~;
#X obj 263 342 out~;
#N canvas 0 50 450 300 internal 1;
#X obj 234 604 inlet~;
#X obj 71 666 outlet~;
#N canvas 0 0 450 250 (subpatch) 0;
#X array \$0-lin 2048 float 0;
#X coords 0 255.1 2047 112.7 200 140 1;
#X restore 423 329 graph;
#N canvas 0 0 450 250 (subpatch) 0;
#X array \$0-log 4096 float 0;
#X coords 0 284 4095 135 200 140 1;
#X restore 423 516 graph;
#X obj 252 -42 block~;
#X floatatom 272 -328 5 0 0 0 - - - 12;
#X obj 475 -83 array size \$0-lin;
#X obj 321 -83 array size \$0-log;
#X obj 488 757 car2pol~;
#X obj 436 1166 tabwrite~ \$0-lin;
#X obj 112 867 bang~;
#X msg 252 -83 set \$1;
#X obj 56 -49 count~;
#X obj -15 -122 bang~;
#X obj 56 71 tabread~ \$0-lin;
#X obj 56 125 tabwrite~ \$0-log;
#X obj 56 13 expr~ pow(2 \, $v1 / $v2 * $f3)-1;
#X obj 272 -293 expr floor($f1) \; pow(2 \, floor($f1)) \; pow(2 \, floor($f1)-1);
#X floatatom 272 -237 5 0 0 0 - - - 12;
#X floatatom 347 -237 5 0 0 0 - - - 12;
#X floatatom 418 -237 5 0 0 0 - - - 12;
#X obj 234 647 rfft~;
#X obj 234 725 log~;
#X obj 288 775 rifft~;
#X obj 288 814 *~;
#X obj 288 850 *~ 4;
#X obj 456 1131 rmstodb~;
#X obj 488 996 ifft~;
#X obj 456 916 log~;
#X obj 456 1081 car2pol~;
#X connect 0 0 1 0;
#X connect 0 0 21 0;
#X connect 5 0 17 0;
#X connect 8 0 22 0;
#X connect 8 0 28 0;
#X connect 8 1 27 1;
#X connect 10 0 9 0;
#X connect 11 0 4 0;
#X connect 12 0 16 0;
#X connect 13 0 12 0;
#X connect 13 0 15 0;
#X connect 14 0 15 0;
#X connect 16 0 14 0;
#X connect 17 0 18 0;
#X connect 17 1 19 0;
#X connect 17 2 20 0;
#X connect 18 0 16 2;
#X connect 19 0 7 0;
#X connect 19 0 11 0;
#X connect 19 0 12 1;
#X connect 19 0 16 1;
#X connect 20 0 6 0;
#X connect 21 0 8 0;
#X connect 21 1 8 1;
#X connect 22 0 23 0;
#X connect 23 0 24 0;
#X connect 23 0 24 1;
#X connect 24 0 25 0;
#X connect 26 0 9 0;
#X connect 27 0 29 0;
#X connect 27 1 29 1;
#X connect 28 0 27 0;
#X connect 29 0 26 0;
#X restore 294 203 pd internal;
#X connect 0 0 2 0;
#X connect 0 1 2 0;
#X connect 2 0 1 0;
#X connect 2 0 1 1;
